<mxfile host="app.diagrams.net" agent="Mozilla/5.0 (Macintosh; Intel Mac OS X 10_15_7) AppleWebKit/537.36 (KHTML, like Gecko) Chrome/131.0.0.0 Safari/537.36" version="24.8.3">
  <diagram name="Page-1" id="mlMTEHKoU8J8DtQ6lP3k">
    <mxGraphModel dx="1213" dy="761" grid="1" gridSize="10" guides="1" tooltips="1" connect="1" arrows="1" fold="1" page="1" pageScale="1" pageWidth="827" pageHeight="1169" math="0" shadow="0">
      <root>
        <mxCell id="0" />
        <mxCell id="1" parent="0" />
        <mxCell id="nd1UOSQWi5Urp7xxWUWc-6" value="" style="edgeStyle=orthogonalEdgeStyle;rounded=0;orthogonalLoop=1;jettySize=auto;html=1;" edge="1" parent="1" source="nd1UOSQWi5Urp7xxWUWc-4" target="nd1UOSQWi5Urp7xxWUWc-5">
          <mxGeometry relative="1" as="geometry" />
        </mxCell>
        <mxCell id="nd1UOSQWi5Urp7xxWUWc-4" value="start" style="ellipse;whiteSpace=wrap;html=1;aspect=fixed;" vertex="1" parent="1">
          <mxGeometry x="90" y="120" width="80" height="80" as="geometry" />
        </mxCell>
        <mxCell id="nd1UOSQWi5Urp7xxWUWc-10" style="edgeStyle=orthogonalEdgeStyle;rounded=0;orthogonalLoop=1;jettySize=auto;html=1;entryX=0.5;entryY=0;entryDx=0;entryDy=0;" edge="1" parent="1" source="nd1UOSQWi5Urp7xxWUWc-5" target="nd1UOSQWi5Urp7xxWUWc-9">
          <mxGeometry relative="1" as="geometry" />
        </mxCell>
        <mxCell id="nd1UOSQWi5Urp7xxWUWc-5" value="Input name/password" style="whiteSpace=wrap;html=1;" vertex="1" parent="1">
          <mxGeometry x="70" y="240" width="120" height="60" as="geometry" />
        </mxCell>
        <mxCell id="nd1UOSQWi5Urp7xxWUWc-12" value="" style="edgeStyle=orthogonalEdgeStyle;rounded=0;orthogonalLoop=1;jettySize=auto;html=1;" edge="1" parent="1" source="nd1UOSQWi5Urp7xxWUWc-9" target="nd1UOSQWi5Urp7xxWUWc-11">
          <mxGeometry relative="1" as="geometry" />
        </mxCell>
        <mxCell id="nd1UOSQWi5Urp7xxWUWc-9" value="PreAuthentication" style="shape=process;whiteSpace=wrap;html=1;backgroundOutline=1;" vertex="1" parent="1">
          <mxGeometry x="70" y="340" width="120" height="60" as="geometry" />
        </mxCell>
        <mxCell id="nd1UOSQWi5Urp7xxWUWc-14" style="edgeStyle=orthogonalEdgeStyle;rounded=0;orthogonalLoop=1;jettySize=auto;html=1;exitX=0.5;exitY=1;exitDx=0;exitDy=0;entryX=0.5;entryY=0;entryDx=0;entryDy=0;" edge="1" parent="1" source="nd1UOSQWi5Urp7xxWUWc-11" target="nd1UOSQWi5Urp7xxWUWc-13">
          <mxGeometry relative="1" as="geometry" />
        </mxCell>
        <mxCell id="nd1UOSQWi5Urp7xxWUWc-11" value="2FA Verification" style="whiteSpace=wrap;html=1;" vertex="1" parent="1">
          <mxGeometry x="70" y="450" width="120" height="60" as="geometry" />
        </mxCell>
        <mxCell id="nd1UOSQWi5Urp7xxWUWc-16" style="edgeStyle=orthogonalEdgeStyle;rounded=0;orthogonalLoop=1;jettySize=auto;html=1;entryX=0.5;entryY=0;entryDx=0;entryDy=0;" edge="1" parent="1" source="nd1UOSQWi5Urp7xxWUWc-13" target="nd1UOSQWi5Urp7xxWUWc-15">
          <mxGeometry relative="1" as="geometry" />
        </mxCell>
        <mxCell id="nd1UOSQWi5Urp7xxWUWc-13" value="PostAuthentication" style="shape=process;whiteSpace=wrap;html=1;backgroundOutline=1;" vertex="1" parent="1">
          <mxGeometry x="70" y="550" width="120" height="60" as="geometry" />
        </mxCell>
        <mxCell id="nd1UOSQWi5Urp7xxWUWc-19" style="edgeStyle=orthogonalEdgeStyle;rounded=0;orthogonalLoop=1;jettySize=auto;html=1;exitX=0.5;exitY=1;exitDx=0;exitDy=0;entryX=0.5;entryY=0;entryDx=0;entryDy=0;" edge="1" parent="1" source="nd1UOSQWi5Urp7xxWUWc-15" target="nd1UOSQWi5Urp7xxWUWc-20">
          <mxGeometry relative="1" as="geometry">
            <mxPoint x="130" y="770" as="targetPoint" />
          </mxGeometry>
        </mxCell>
        <mxCell id="nd1UOSQWi5Urp7xxWUWc-15" value="PreTokenGeneration" style="shape=process;whiteSpace=wrap;html=1;backgroundOutline=1;" vertex="1" parent="1">
          <mxGeometry x="70" y="660" width="120" height="60" as="geometry" />
        </mxCell>
        <mxCell id="nd1UOSQWi5Urp7xxWUWc-20" value="End" style="ellipse;whiteSpace=wrap;html=1;aspect=fixed;" vertex="1" parent="1">
          <mxGeometry x="90" y="780" width="80" height="80" as="geometry" />
        </mxCell>
        <mxCell id="nd1UOSQWi5Urp7xxWUWc-22" value="" style="edgeStyle=orthogonalEdgeStyle;rounded=0;orthogonalLoop=1;jettySize=auto;html=1;" edge="1" parent="1" source="nd1UOSQWi5Urp7xxWUWc-23" target="nd1UOSQWi5Urp7xxWUWc-25">
          <mxGeometry relative="1" as="geometry" />
        </mxCell>
        <mxCell id="nd1UOSQWi5Urp7xxWUWc-23" value="start" style="ellipse;whiteSpace=wrap;html=1;aspect=fixed;" vertex="1" parent="1">
          <mxGeometry x="340" y="110" width="80" height="80" as="geometry" />
        </mxCell>
        <mxCell id="nd1UOSQWi5Urp7xxWUWc-24" style="edgeStyle=orthogonalEdgeStyle;rounded=0;orthogonalLoop=1;jettySize=auto;html=1;entryX=0.5;entryY=0;entryDx=0;entryDy=0;" edge="1" parent="1" source="nd1UOSQWi5Urp7xxWUWc-25" target="nd1UOSQWi5Urp7xxWUWc-27">
          <mxGeometry relative="1" as="geometry" />
        </mxCell>
        <mxCell id="nd1UOSQWi5Urp7xxWUWc-25" value="Input name/password" style="whiteSpace=wrap;html=1;" vertex="1" parent="1">
          <mxGeometry x="320" y="240" width="120" height="60" as="geometry" />
        </mxCell>
        <mxCell id="nd1UOSQWi5Urp7xxWUWc-26" value="" style="edgeStyle=orthogonalEdgeStyle;rounded=0;orthogonalLoop=1;jettySize=auto;html=1;" edge="1" parent="1" source="nd1UOSQWi5Urp7xxWUWc-27" target="nd1UOSQWi5Urp7xxWUWc-29">
          <mxGeometry relative="1" as="geometry" />
        </mxCell>
        <mxCell id="nd1UOSQWi5Urp7xxWUWc-27" value="PreAuthentication" style="shape=process;whiteSpace=wrap;html=1;backgroundOutline=1;" vertex="1" parent="1">
          <mxGeometry x="320" y="340" width="120" height="60" as="geometry" />
        </mxCell>
        <mxCell id="nd1UOSQWi5Urp7xxWUWc-28" style="edgeStyle=orthogonalEdgeStyle;rounded=0;orthogonalLoop=1;jettySize=auto;html=1;exitX=0.5;exitY=1;exitDx=0;exitDy=0;entryX=0.5;entryY=0;entryDx=0;entryDy=0;" edge="1" parent="1" source="nd1UOSQWi5Urp7xxWUWc-29" target="nd1UOSQWi5Urp7xxWUWc-31">
          <mxGeometry relative="1" as="geometry" />
        </mxCell>
        <mxCell id="nd1UOSQWi5Urp7xxWUWc-29" value="Change Password" style="whiteSpace=wrap;html=1;" vertex="1" parent="1">
          <mxGeometry x="320" y="450" width="120" height="60" as="geometry" />
        </mxCell>
        <mxCell id="nd1UOSQWi5Urp7xxWUWc-38" style="edgeStyle=orthogonalEdgeStyle;rounded=0;orthogonalLoop=1;jettySize=auto;html=1;exitX=0.5;exitY=1;exitDx=0;exitDy=0;entryX=0.5;entryY=0;entryDx=0;entryDy=0;" edge="1" parent="1" source="nd1UOSQWi5Urp7xxWUWc-31" target="nd1UOSQWi5Urp7xxWUWc-37">
          <mxGeometry relative="1" as="geometry" />
        </mxCell>
        <mxCell id="nd1UOSQWi5Urp7xxWUWc-31" value="PostAuthentication" style="shape=process;whiteSpace=wrap;html=1;backgroundOutline=1;" vertex="1" parent="1">
          <mxGeometry x="320" y="550" width="120" height="60" as="geometry" />
        </mxCell>
        <mxCell id="nd1UOSQWi5Urp7xxWUWc-41" style="edgeStyle=orthogonalEdgeStyle;rounded=0;orthogonalLoop=1;jettySize=auto;html=1;exitX=0.5;exitY=1;exitDx=0;exitDy=0;entryX=0.5;entryY=0;entryDx=0;entryDy=0;" edge="1" parent="1" source="nd1UOSQWi5Urp7xxWUWc-33" target="nd1UOSQWi5Urp7xxWUWc-40">
          <mxGeometry relative="1" as="geometry">
            <mxPoint x="380" y="860" as="targetPoint" />
          </mxGeometry>
        </mxCell>
        <mxCell id="nd1UOSQWi5Urp7xxWUWc-33" value="PreTokenGeneration" style="shape=process;whiteSpace=wrap;html=1;backgroundOutline=1;" vertex="1" parent="1">
          <mxGeometry x="320" y="760" width="120" height="60" as="geometry" />
        </mxCell>
        <mxCell id="nd1UOSQWi5Urp7xxWUWc-39" style="edgeStyle=orthogonalEdgeStyle;rounded=0;orthogonalLoop=1;jettySize=auto;html=1;exitX=0.5;exitY=1;exitDx=0;exitDy=0;entryX=0.5;entryY=0;entryDx=0;entryDy=0;" edge="1" parent="1" source="nd1UOSQWi5Urp7xxWUWc-37" target="nd1UOSQWi5Urp7xxWUWc-33">
          <mxGeometry relative="1" as="geometry" />
        </mxCell>
        <mxCell id="nd1UOSQWi5Urp7xxWUWc-37" value="Setup 2FA" style="rounded=0;whiteSpace=wrap;html=1;" vertex="1" parent="1">
          <mxGeometry x="320" y="660" width="120" height="60" as="geometry" />
        </mxCell>
        <mxCell id="nd1UOSQWi5Urp7xxWUWc-40" value="End" style="ellipse;whiteSpace=wrap;html=1;aspect=fixed;" vertex="1" parent="1">
          <mxGeometry x="340" y="870" width="80" height="80" as="geometry" />
        </mxCell>
        <mxCell id="nd1UOSQWi5Urp7xxWUWc-42" value="" style="edgeStyle=orthogonalEdgeStyle;rounded=0;orthogonalLoop=1;jettySize=auto;html=1;" edge="1" parent="1" source="nd1UOSQWi5Urp7xxWUWc-43" target="nd1UOSQWi5Urp7xxWUWc-45">
          <mxGeometry relative="1" as="geometry" />
        </mxCell>
        <mxCell id="nd1UOSQWi5Urp7xxWUWc-43" value="start" style="ellipse;whiteSpace=wrap;html=1;aspect=fixed;" vertex="1" parent="1">
          <mxGeometry x="580" y="110" width="80" height="80" as="geometry" />
        </mxCell>
        <mxCell id="nd1UOSQWi5Urp7xxWUWc-44" style="edgeStyle=orthogonalEdgeStyle;rounded=0;orthogonalLoop=1;jettySize=auto;html=1;entryX=0.5;entryY=0;entryDx=0;entryDy=0;" edge="1" parent="1" source="nd1UOSQWi5Urp7xxWUWc-45" target="nd1UOSQWi5Urp7xxWUWc-47">
          <mxGeometry relative="1" as="geometry" />
        </mxCell>
        <mxCell id="nd1UOSQWi5Urp7xxWUWc-45" value="Input name/password" style="whiteSpace=wrap;html=1;" vertex="1" parent="1">
          <mxGeometry x="560" y="240" width="120" height="60" as="geometry" />
        </mxCell>
        <mxCell id="nd1UOSQWi5Urp7xxWUWc-47" value="PreAuthentication" style="shape=process;whiteSpace=wrap;html=1;backgroundOutline=1;" vertex="1" parent="1">
          <mxGeometry x="560" y="340" width="120" height="60" as="geometry" />
        </mxCell>
        <mxCell id="nd1UOSQWi5Urp7xxWUWc-50" style="edgeStyle=orthogonalEdgeStyle;rounded=0;orthogonalLoop=1;jettySize=auto;html=1;exitX=0.5;exitY=1;exitDx=0;exitDy=0;entryX=0.5;entryY=0;entryDx=0;entryDy=0;" edge="1" parent="1" source="nd1UOSQWi5Urp7xxWUWc-47" target="nd1UOSQWi5Urp7xxWUWc-55">
          <mxGeometry relative="1" as="geometry">
            <mxPoint x="620" y="600" as="sourcePoint" />
          </mxGeometry>
        </mxCell>
        <mxCell id="nd1UOSQWi5Urp7xxWUWc-52" style="edgeStyle=orthogonalEdgeStyle;rounded=0;orthogonalLoop=1;jettySize=auto;html=1;exitX=0.5;exitY=1;exitDx=0;exitDy=0;entryX=0.5;entryY=0;entryDx=0;entryDy=0;" edge="1" parent="1" source="nd1UOSQWi5Urp7xxWUWc-53" target="nd1UOSQWi5Urp7xxWUWc-56">
          <mxGeometry relative="1" as="geometry">
            <mxPoint x="620" y="740" as="targetPoint" />
          </mxGeometry>
        </mxCell>
        <mxCell id="nd1UOSQWi5Urp7xxWUWc-53" value="PreTokenGeneration" style="shape=process;whiteSpace=wrap;html=1;backgroundOutline=1;" vertex="1" parent="1">
          <mxGeometry x="560" y="660" width="120" height="60" as="geometry" />
        </mxCell>
        <mxCell id="nd1UOSQWi5Urp7xxWUWc-61" style="edgeStyle=orthogonalEdgeStyle;rounded=0;orthogonalLoop=1;jettySize=auto;html=1;exitX=0.5;exitY=1;exitDx=0;exitDy=0;entryX=0.5;entryY=0;entryDx=0;entryDy=0;" edge="1" parent="1" source="nd1UOSQWi5Urp7xxWUWc-55" target="nd1UOSQWi5Urp7xxWUWc-59">
          <mxGeometry relative="1" as="geometry" />
        </mxCell>
        <mxCell id="nd1UOSQWi5Urp7xxWUWc-55" value="Setup 2FA" style="rounded=0;whiteSpace=wrap;html=1;" vertex="1" parent="1">
          <mxGeometry x="560" y="450" width="120" height="60" as="geometry" />
        </mxCell>
        <mxCell id="nd1UOSQWi5Urp7xxWUWc-56" value="End" style="ellipse;whiteSpace=wrap;html=1;aspect=fixed;" vertex="1" parent="1">
          <mxGeometry x="580" y="750" width="80" height="80" as="geometry" />
        </mxCell>
        <mxCell id="nd1UOSQWi5Urp7xxWUWc-57" value="Normal SignIn" style="text;html=1;align=center;verticalAlign=middle;whiteSpace=wrap;rounded=0;" vertex="1" parent="1">
          <mxGeometry x="20" y="110" width="60" height="30" as="geometry" />
        </mxCell>
        <mxCell id="nd1UOSQWi5Urp7xxWUWc-58" value="Normal 2FA Setup" style="text;html=1;align=center;verticalAlign=middle;whiteSpace=wrap;rounded=0;" vertex="1" parent="1">
          <mxGeometry x="260" y="110" width="60" height="30" as="geometry" />
        </mxCell>
        <mxCell id="nd1UOSQWi5Urp7xxWUWc-62" style="edgeStyle=orthogonalEdgeStyle;rounded=0;orthogonalLoop=1;jettySize=auto;html=1;exitX=0.5;exitY=1;exitDx=0;exitDy=0;entryX=0.5;entryY=0;entryDx=0;entryDy=0;" edge="1" parent="1" source="nd1UOSQWi5Urp7xxWUWc-59" target="nd1UOSQWi5Urp7xxWUWc-53">
          <mxGeometry relative="1" as="geometry" />
        </mxCell>
        <mxCell id="nd1UOSQWi5Urp7xxWUWc-59" value="PostAuthentication" style="shape=process;whiteSpace=wrap;html=1;backgroundOutline=1;" vertex="1" parent="1">
          <mxGeometry x="560" y="550" width="120" height="60" as="geometry" />
        </mxCell>
        <mxCell id="nd1UOSQWi5Urp7xxWUWc-63" value="2 Step&lt;br&gt;2FA Setup" style="text;html=1;align=center;verticalAlign=middle;whiteSpace=wrap;rounded=0;" vertex="1" parent="1">
          <mxGeometry x="510" y="110" width="60" height="30" as="geometry" />
        </mxCell>
      </root>
    </mxGraphModel>
  </diagram>
</mxfile>
